<svg width="180" height="180" viewBox="0 0 180 180" fill="none" xmlns="http://www.w3.org/2000/svg">
<rect width="180" height="180" fill="#EEEEEE"/>
<path d="M154.858 98.867L144.61 57.0736C143.897 52.4734 139.457 44.0559 127.563 44.0559C126.775 44.0559 126.019 44.3653 125.461 44.916C124.903 45.4666 124.59 46.2135 124.59 46.9923C124.59 47.771 124.903 48.5179 125.461 49.0685C126.019 49.6192 126.775 49.9286 127.563 49.9286C137.177 49.9286 138.604 57.2302 138.743 58.0328L148.178 96.5962H144.035C143.607 93.2322 142.446 89.9997 140.632 87.1207C138.819 84.2417 136.396 81.7846 133.53 79.918C132.632 80.2912 131.866 80.9172 131.327 81.7179C130.787 82.5187 130.499 83.4586 130.497 84.4204C130.508 84.5898 130.508 84.7598 130.497 84.9293C132.907 86.5619 134.886 88.7421 136.265 91.2867C137.645 93.8313 138.386 96.6659 138.426 99.5521C138.414 100.537 138.321 101.519 138.148 102.488C137.499 106.647 135.365 110.439 132.131 113.178C128.897 115.917 124.777 117.423 120.517 117.423C116.256 117.423 112.137 115.917 108.903 113.178C105.669 110.439 103.534 106.647 102.885 102.488C102.713 101.519 102.62 100.537 102.608 99.5521C102.639 96.8363 103.282 94.1615 104.491 91.722C103.488 91.6525 102.55 91.2095 101.866 90.4827C101.181 89.7559 100.802 88.7994 100.804 87.8069C100.807 87.4514 100.673 87.1081 100.428 86.8477C98.5096 89.8028 97.2964 93.1496 96.8795 96.6354H93.1926C92.5601 90.8778 89.7963 85.5539 85.4317 81.6859C81.0671 77.8179 75.4096 75.6785 69.5453 75.6785C63.681 75.6785 58.0234 77.8179 53.6589 81.6859C49.2943 85.5539 46.5304 90.8778 45.898 96.6354H41.7949L51.2498 58.0328C51.3688 57.2302 52.8554 49.9286 62.4293 49.9286C63.2178 49.9286 63.9741 49.6192 64.5317 49.0685C65.0893 48.5179 65.4025 47.771 65.4025 46.9923C65.4025 46.2135 65.0893 45.4666 64.5317 44.916C63.9741 44.3653 63.2178 44.0559 62.4293 44.0559C50.5362 44.0559 46.0962 52.4734 45.3826 57.0736L35.1149 98.867C34.9879 99.2923 34.9658 99.7415 35.0504 100.177C35.1351 100.613 35.324 101.022 35.6014 101.371C35.8789 101.719 36.2368 101.997 36.6452 102.182C37.0537 102.366 37.5009 102.451 37.9494 102.43H45.8781C46.0394 103.64 46.2912 104.838 46.6314 106.012C46.7566 105.797 46.8248 105.555 46.8296 105.307C46.8296 104.269 47.2472 103.273 47.9907 102.539C48.7342 101.805 49.7425 101.392 50.7939 101.392C51.1158 101.396 51.4357 101.443 51.7454 101.529C51.659 100.847 51.6127 100.161 51.6066 99.4738C51.6119 98.4898 51.6981 97.5078 51.8643 96.5375C52.4993 92.3657 54.6291 88.5574 57.8665 85.8049C61.1038 83.0525 65.2338 81.5387 69.5056 81.5387C73.7774 81.5387 77.9074 83.0525 81.1448 85.8049C84.3822 88.5574 86.512 92.3657 87.147 96.5375C87.3132 97.5078 87.3994 98.4898 87.4047 99.4738C87.3735 104.137 85.484 108.6 82.1451 111.897C78.8063 115.195 74.2868 117.061 69.5651 117.092C65.7006 117.144 61.9235 115.956 58.8019 113.705C58.0866 114.319 57.1725 114.659 56.2251 114.664C55.8342 114.669 55.4612 114.826 55.1867 115.101C54.9121 115.376 54.7582 115.746 54.7583 116.132C54.7529 116.68 54.6313 117.22 54.4015 117.718C58.6421 121.189 63.9781 123.086 69.4858 123.082C75.3038 123.106 80.9292 121.024 85.2978 117.23C89.6664 113.435 92.4751 108.19 93.1926 102.488H96.8002C97.4531 108.228 100.224 113.529 104.585 117.379C108.945 121.229 114.589 123.357 120.438 123.357C126.286 123.357 131.93 121.229 136.29 117.379C140.651 113.529 143.422 108.228 144.075 102.488H152.004C152.462 102.521 152.921 102.442 153.341 102.257C153.761 102.073 154.128 101.789 154.411 101.431C154.693 101.073 154.881 100.651 154.959 100.204C155.037 99.757 155.003 99.2977 154.858 98.867V98.867Z" fill="black"/>
</svg>
